# xmcd CD database file
#
# Track frame offsets:
#	150
#	20207
#	35053
#	55328
#	72567
#	87036
#	101528
#	116300
#	134375
#	147160
#
# Disc length: 2147 seconds
#
# Revision: 0
# Processed by: cddbd v1.5.2PL0 Copyright (c) Steve Scherf et al.
# Submitted via: CDex 1.51
#
DISCID=8e08610a
DTITLE=Laura Watson - Gordon Tucker - Blue Notes
DYEAR=2005
DGENRE=Blues
TTITLE0=That's Why The Lady is a Tramp
TTITLE1=From Four Until Late
TTITLE2=Autumn Leaves
TTITLE3=Caledonia. What Makes Your Big Head So Hard?
TTITLE4=Swing Low Sweet Chariot
TTITLE5=Oscar Stones Rag
TTITLE6=I Got My Mojo Working
TTITLE7=Summertime
TTITLE8=The Preacher
TTITLE9=Swingin Sheperd Blues
EXTD=YEAR: 2005
EXTT0=
EXTT1=
EXTT2=
EXTT3=
EXTT4=
EXTT5=
EXTT6=
EXTT7=
EXTT8=
EXTT9=
PLAYORDER=
